# xmcd CD database file
#
# Track frame offsets:
#	150
#	19762
#	35382
#	57302
#	71075
#	89672
#	103190
#	125202
#	151887
#	172325
#	191815
#	215252
#	235290
#	270392
#
# Disc length: 4440 seconds
#
# Revision: 2
# Processed by: cddbd v1.5PL3 Copyright (c) Steve Scherf et al.
# Submitted via: CDex 1.51
#
DISCID=d111560e
DTITLE=相川七瀬 - 7 seven
DYEAR=2004
DGENRE=J-POP
TTITLE0=LIE LIE LIE
TTITLE1=R-指定
TTITLE2=BLUE KNIFE
TTITLE3=恋愛体質
TTITLE4=BLACK ANGEL
TTITLE5=目下の恋人
TTITLE6=ダリア -She Knows Love-
TTITLE7=愛の歌 -マジェンタレイン-
TTITLE8=夏の日のコーラル
TTITLE9=火をつけろベイビー!!
TTITLE10=時の風
TTITLE11=NIGHT RAINBOW
TTITLE12=Shock of Love
TTITLE13=data track
EXTD=YEAR: 2004
EXTT0=
EXTT1=
EXTT2=
EXTT3=
EXTT4=
EXTT5=
EXTT6=
EXTT7=
EXTT8=
EXTT9=
EXTT10=
EXTT11=
EXTT12=
EXTT13=
PLAYORDER=
